# xmcd
#
# Track frame offsets:
#	150
#	12354
#	26583
#	42296
#	52089
#	63894
#	82470
#	97912
#	108567
#	124401
#	141953
#	153446
#	161611
#	170790
#	190710
#	199972
#	215845
#	226132
#	242225
#	257642
#
# Disc length: 3607 seconds
#
# Revision: 0
# Processed by: cddbd v1.5.2PL0 Copyright (c) Steve Scherf et al.
# Submitted via: EasyCDDAExtractor 8.2.3.1
#
DISCID=270e1514
DTITLE=Chuck Levy - Scratching and Clawing
DYEAR=2006
DGENRE=country
TTITLE0=Angeline
TTITLE1=Betsy Likens
TTITLE2=Salt River
TTITLE3=Flames Upon the Cuyahoga
TTITLE4=Jimmy Shenks
TTITLE5=John Henry
TTITLE6=Johnny Don't Get Drunk
TTITLE7=Lafayette
TTITLE8=Little Olentangy
TTITLE9=Milwaukee Blues
TTITLE10=Money in Both Pockets
TTITLE11=Oh Little Indian, Don't Get Drunk
TTITLE12=Rabbit Where's Your Momma
TTITLE13=Red Rocking Chair
TTITLE14=Pat Your Little Foot, Sally Ann
TTITLE15=Sarah Armstrong
TTITLE16=Sugarcane Dance/Levy's Jig
TTITLE17=Tecumseh's Moan
TTITLE18=Tippercanoe
TTITLE19=Yellow Rose of Texas
EXTD=
EXTT0=
EXTT1=
EXTT2=
EXTT3=
EXTT4=
EXTT5=
EXTT6=
EXTT7=
EXTT8=
EXTT9=
EXTT10=
EXTT11=
EXTT12=
EXTT13=
EXTT14=
EXTT15=
EXTT16=
EXTT17=
EXTT18=
EXTT19=
PLAYORDER=
